<?xml version="1.0" encoding="UTF-8"?>
<svg width="300" height="300" viewBox="0 0 300 300" xmlns="http://www.w3.org/2000/svg">
  <path d="M150 50 C 80 50, 50 120, 50 200 C 50 250, 90 280, 150 280 C 210 280, 250 250, 250 200 C 250 120, 220 50, 150 50" fill="none" stroke="black" stroke-width="2"/>
  <path d="M100 120 C 90 110, 85 100, 80 90" fill="none" stroke="black" stroke-width="2"/>
  <path d="M200 120 C 210 110, 215 100, 220 90" fill="none" stroke="black" stroke-width="2"/>
  <circle cx="120" cy="150" r="10" fill="black"/>
  <circle cx="180" cy="150" r="10" fill="black"/>
  <circle cx="150" cy="180" r="15" fill="black"/>
  <path d="M120 200 Q 150 230 180 200" fill="none" stroke="black" stroke-width="2"/>
  <path d="M150 280 L 150 300" fill="none" stroke="black" stroke-width="2"/>
</svg> 